<?xml version="1.0" encoding="UTF-8" standalone="no"?>
<!-- Created with Inkscape (http://www.inkscape.org/) -->

<svg
   width="129.60657mm"
   height="69.107414mm"
   viewBox="0 0 129.60657 69.107414"
   version="1.1"
   id="svg5"
   xmlns="http://www.w3.org/2000/svg"
   xmlns:svg="http://www.w3.org/2000/svg">
  <defs
     id="defs2" />
  <g
     id="layer1"
     transform="translate(-226.70148,-115.99888)">
    <path
       id="rect337"
       style="fill:#ffffff;stroke-width:0.274759"
       d="m 256.19012,115.99888 c -3.13523,0 -5.65703,0.57129 -7.56543,1.71359 -1.79306,1.05998 -2.68977,2.37717 -2.68977,3.9517 0,1.57453 0.88115,2.88651 2.64275,3.93619 1.24743,0.74477 2.77114,1.24195 4.56819,1.49449 h -11.59361 c -8.22732,0 -14.85078,6.62352 -14.85078,14.85077 0,6.65121 4.32971,12.25261 10.33529,14.15521 -6.0055,1.90265 -10.33529,7.50353 -10.33529,14.15469 0,8.22725 6.62346,14.85077 14.85078,14.85077 h 99.90502 c 8.22725,0 14.85077,-6.62352 14.85077,-14.85077 0,-6.65116 -4.3298,-12.25204 -10.33528,-14.15469 6.00556,-1.9026 10.33528,-7.504 10.33528,-14.15521 0,-8.22725 -6.62352,-14.85077 -14.85077,-14.85077 H 258.9853 c 1.79562,-0.25853 3.37615,-0.7733 4.73873,-1.54823 0.19923,-0.1132 0.29869,-0.20077 0.29869,-0.26252 0,-0.0412 -0.31447,-0.26529 -0.94361,-0.67179 -0.62915,-0.41164 -0.97527,-0.61702 -1.03818,-0.61702 -0.0524,0 -0.35133,0.12563 -0.89659,0.37776 -0.65011,0.30358 -1.2896,0.53814 -1.91874,0.7028 -0.9542,0.25213 -1.94483,0.37775 -2.97243,0.37775 -2.06569,0 -3.67522,-0.39875 -4.82865,-1.19631 -1.01711,-0.71008 -1.526,-1.59255 -1.526,-2.64738 0,-1.05483 0.5139,-1.92948 1.5415,-2.62413 1.15343,-0.77697 2.76798,-1.1653 4.84415,-1.1653 1.09052,0 2.08668,0.12614 2.98845,0.37827 0.54526,0.15436 1.12749,0.3858 1.74615,0.69453 0.50331,0.25213 0.82332,0.37827 0.95963,0.37827 0.11534,0 0.45091,-0.21371 1.00666,-0.64079 0.55574,-0.43222 0.83354,-0.6918 0.83354,-0.77928 0,-0.072 -0.0839,-0.16221 -0.25167,-0.27026 -1.74063,-1.05484 -4.19963,-1.58234 -7.37681,-1.58234 z m 9.972,0.23926 c -0.26214,0 -0.39325,0.0568 -0.39325,0.17002 0,0.59688 0.0522,1.49447 0.15709,2.69338 0.11535,1.19376 0.17312,2.08926 0.17312,2.68614 0,0.566 -0.0578,1.41772 -0.17312,2.55488 -0.10485,1.13201 -0.15709,1.98061 -0.15709,2.54661 0,0.11835 0.13111,0.17777 0.39325,0.17777 0.18875,0 0.46654,-0.008 0.83354,-0.0232 0.37749,-0.0154 0.66031,-0.0233 0.84905,-0.0233 0.19923,0 0.49813,0.008 0.89658,0.0233 0.39846,0.0154 0.69736,0.0232 0.89659,0.0232 0.26214,0 0.39326,-0.085 0.39326,-0.25476 0,-0.45281 -0.0261,-1.1346 -0.0786,-2.04536 -0.0524,-0.91075 -0.0786,-1.59254 -0.0786,-2.04535 0,-0.20067 0.11503,-0.31639 0.34572,-0.34727 0.32505,-0.0412 2.13904,-0.0615 5.44204,-0.0615 3.31349,0 5.12799,0.0203 5.44256,0.0615 0.24118,0.0309 0.36174,0.1466 0.36174,0.34727 0,0.4631 -0.0317,1.15792 -0.0946,2.08411 -0.0524,0.92619 -0.0785,1.6205 -0.0785,2.08359 0,0.11835 0.12057,0.17777 0.36174,0.17777 0.19923,0 0.49813,-0.008 0.89658,-0.0232 0.40895,-0.0154 0.71286,-0.0233 0.91209,-0.0233 0.18875,0 0.46654,0.008 0.83354,0.0233 0.37749,0.0154 0.65529,0.0232 0.83355,0.0232 0.31457,0 0.4718,-0.0594 0.4718,-0.17777 0,-0.566 -0.0573,-1.4146 -0.1726,-2.54661 -0.11534,-1.13716 -0.17311,-1.98888 -0.17311,-2.55488 0,-0.59688 0.0522,-1.49238 0.15709,-2.68614 0.10486,-1.19891 0.15761,-2.0965 0.15761,-2.69338 0,-0.1132 -0.13664,-0.17002 -0.40927,-0.17002 -0.18875,0 -0.47156,0.008 -0.84905,0.0233 -0.37748,0.0154 -0.66081,0.0233 -0.84956,0.0233 -0.19923,0 -0.49259,-0.008 -0.88056,-0.0233 -0.37749,-0.0154 -0.66584,-0.0233 -0.86507,-0.0233 -0.24117,0 -0.36173,0.0516 -0.36173,0.15452 0,0.43222 0.0261,1.08326 0.0786,1.95285 0.0629,0.86959 0.094,1.52011 0.094,1.95234 0,0.19038 -0.12057,0.3014 -0.36174,0.33227 -0.31457,0.0463 -2.14966,0.0692 -5.50509,0.0692 -3.42883,0 -5.27395,-0.0229 -5.53609,-0.0692 -0.2202,-0.0309 -0.33022,-0.11844 -0.33022,-0.26251 0,-0.44252 0.0367,-1.10658 0.11007,-1.99161 0.0839,-0.89018 0.12558,-1.55633 0.12558,-1.99885 0,-0.0926 -0.12057,-0.13901 -0.36174,-0.13901 -0.18874,0 -0.48211,0.008 -0.88056,0.0233 -0.39846,0.0154 -0.69234,0.0233 -0.88109,0.0233 -0.19923,0 -0.49259,-0.008 -0.88056,-0.0233 -0.38797,-0.0154 -0.67632,-0.0233 -0.86507,-0.0233 z m 22.5392,0 c -0.26215,0 -0.39326,0.0464 -0.39326,0.13901 0,0.42194 -0.0266,1.05734 -0.0791,1.90635 -0.0524,0.84901 -0.0785,1.48441 -0.0785,1.90634 0,0.15437 1.00169,1.25576 3.00446,3.30368 1.44703,1.49734 2.5321,2.61907 3.25562,3.36517 0.13631,0.13892 0.283,0.20825 0.44028,0.20825 h 2.81533 c 0.19923,0 0.35698,-0.0693 0.47233,-0.20825 1.53091,-1.87297 2.65767,-3.28295 3.38119,-4.22972 1.45751,1.92442 2.57424,3.3344 3.35018,4.22972 0.12583,0.13892 0.2886,0.20825 0.48782,0.20825 h 2.83136 c 0.1468,0 0.28794,-0.0693 0.42426,-0.20825 1.44703,-1.4922 2.52207,-2.61393 3.22461,-3.36517 2.09714,-2.16112 3.14554,-3.26251 3.14554,-3.30368 0,-0.40649 -0.0261,-1.01375 -0.0786,-1.82159 -0.0524,-0.80785 -0.0785,-1.4151 -0.0785,-1.8216 v -0.216 c -0.0315,-0.0618 -0.15756,-0.0925 -0.37776,-0.0925 -0.19923,0 -0.49259,0.008 -0.88056,0.0233 -0.38798,0.0154 -0.67632,0.0233 -0.86507,0.0233 -0.20971,0 -0.52418,-0.008 -0.94361,-0.0233 -0.40894,-0.0154 -0.71839,-0.0233 -0.92811,-0.0233 -0.0839,0 -0.12609,0.0386 -0.12609,0.11576 0,0.41679 0.0472,1.04437 0.14159,1.88309 0.0944,0.83872 0.1416,1.46942 0.1416,1.89136 0,0.26756 -1.03283,1.43777 -3.09852,3.51141 -0.68157,0.68435 -1.05381,1.02681 -1.11673,1.02681 -0.0315,-0.0154 -0.052,-0.0337 -0.0625,-0.0543 -0.37748,-0.42193 -0.65026,-0.74615 -0.81803,-0.97255 -1.55189,-2.0016 -2.3436,-3.13063 -2.37505,-3.38791 -0.0105,-0.1132 -0.016,-0.43481 -0.016,-0.9648 0,-0.32416 0.0211,-0.81049 0.063,-1.45882 0.0419,-0.65348 0.063,-1.14241 0.063,-1.46658 0,-0.0823 -0.12057,-0.12351 -0.36174,-0.12351 -0.17826,0 -0.4455,0.008 -0.80202,0.0233 -0.35651,0.0154 -0.62427,0.0233 -0.80253,0.0233 -0.20972,0 -0.51363,-0.008 -0.91209,-0.0233 -0.39846,-0.0154 -0.69736,-0.0233 -0.89659,-0.0233 -0.2202,0 -0.33021,0.0386 -0.33021,0.11576 0,0.30359 0.0156,0.75915 0.047,1.36633 0.0419,0.60202 0.063,1.05447 0.063,1.35805 0,0.68436 -0.0156,1.09093 -0.047,1.21957 -0.79692,1.27608 -1.57305,2.41605 -2.32803,3.41942 -0.40894,0.54028 -0.67619,0.86971 -0.80201,0.98806 -0.0315,0.0309 -0.0576,0.0486 -0.0786,0.0537 -0.0629,0 -0.44571,-0.34976 -1.14825,-1.04955 -2.11812,-2.1148 -3.17707,-3.30325 -3.17707,-3.56567 0,-0.41679 0.0467,-1.04489 0.14108,-1.88361 0.10485,-0.84386 0.15761,-1.47405 0.15761,-1.89084 0,-0.0772 -0.11001,-0.11575 -0.33021,-0.11575 -0.17826,0 -0.44602,0.005 -0.80254,0.0155 -0.35651,0.0103 -0.62376,0.0155 -0.80202,0.0155 -0.18874,0 -0.47709,-0.008 -0.86506,-0.0233 -0.37749,-0.0154 -0.6603,-0.0233 -0.84904,-0.0233 z m 29.25506,0 c -0.26214,0 -0.39326,0.0568 -0.39326,0.17002 0,0.59688 0.0522,1.49447 0.1571,2.69338 0.11534,1.19376 0.17311,2.08926 0.17311,2.68614 0,0.566 -0.0578,1.41772 -0.17311,2.55488 -0.10486,1.13201 -0.1571,1.98061 -0.1571,2.54661 0,0.11835 0.13112,0.17777 0.39326,0.17777 0.18874,0 0.46654,-0.008 0.83354,-0.0232 0.37749,-0.0154 0.6603,-0.0233 0.84904,-0.0233 0.19923,0 0.49813,0.008 0.89659,0.0233 0.39846,0.0154 0.69736,0.0232 0.89659,0.0232 0.26214,0 0.39325,-0.085 0.39325,-0.25476 0,-0.45281 -0.0261,-1.1346 -0.0786,-2.04536 -0.0524,-0.91075 -0.0785,-1.59254 -0.0785,-2.04535 0,-0.20067 0.11503,-0.31639 0.34571,-0.34727 0.32506,-0.0412 2.13956,-0.0615 5.44256,-0.0615 3.31349,0 5.12748,0.0203 5.44205,0.0615 0.24117,0.0309 0.36173,0.1466 0.36173,0.34727 0,0.4631 -0.0316,1.15792 -0.0946,2.08411 -0.0524,0.92619 -0.0786,1.6205 -0.0786,2.08359 0,0.11835 0.12056,0.17777 0.36173,0.17777 0.19923,0 0.49813,-0.008 0.89659,-0.0232 0.40894,-0.0154 0.71286,-0.0233 0.91209,-0.0233 0.18874,0 0.46654,0.008 0.83354,0.0233 0.37748,0.0154 0.65528,0.0232 0.83354,0.0232 0.31457,0 0.47232,-0.0594 0.47232,-0.17777 0,-0.566 -0.0578,-1.4146 -0.17311,-2.54661 -0.11535,-1.13716 -0.17312,-1.98888 -0.17312,-2.55488 0,-0.59688 0.0522,-1.49238 0.1571,-2.68614 0.10485,-1.19891 0.15761,-2.0965 0.15761,-2.69338 0,-0.1132 -0.13665,-0.17002 -0.40928,-0.17002 -0.18874,0 -0.47156,0.008 -0.84904,0.0233 -0.37749,0.0154 -0.66082,0.0233 -0.84956,0.0233 -0.19923,0 -0.4926,-0.008 -0.88057,-0.0233 -0.37748,-0.0154 -0.66583,-0.0233 -0.86506,-0.0233 -0.24117,0 -0.36174,0.0516 -0.36174,0.15452 0,0.43222 0.0261,1.08326 0.0786,1.95285 0.0629,0.86959 0.0941,1.52011 0.0941,1.95234 0,0.19038 -0.12056,0.3014 -0.36173,0.33227 -0.31457,0.0463 -2.14915,0.0692 -5.50458,0.0692 -3.42883,0 -5.27447,-0.0229 -5.53661,-0.0692 -0.2202,-0.0309 -0.33021,-0.11844 -0.33021,-0.26251 0,-0.44252 0.0367,-1.10658 0.11007,-1.99161 0.0839,-0.89018 0.12557,-1.55633 0.12557,-1.99885 0,-0.0926 -0.12056,-0.13901 -0.36173,-0.13901 -0.18875,0 -0.48211,0.008 -0.88057,0.0233 -0.39846,0.0154 -0.69234,0.0233 -0.88108,0.0233 -0.19923,0 -0.4926,-0.008 -0.88057,-0.0233 -0.38797,-0.0154 -0.67632,-0.0233 -0.86506,-0.0233 z m -65.21514,19.543 h 25.00106 c 1.49581,0 2.70009,1.20422 2.70009,2.70009 0,1.49588 -1.20428,2.7001 -2.70009,2.7001 h -25.00106 c -1.49588,0 -2.7001,-1.20422 -2.7001,-2.7001 0,-1.49587 1.20422,-2.70009 2.7001,-2.70009 z m 34.68625,0 h 25.00158 c 1.49588,0 2.70009,1.20421 2.70009,2.70009 0,1.49587 -1.20421,2.7001 -2.70009,2.7001 h -25.00158 c -1.49587,0 -2.70009,-1.20423 -2.70009,-2.7001 0,-1.49588 1.20422,-2.70009 2.70009,-2.70009 z m 37.21737,6.99182 a 4.0002041,4.0002041 0 0 1 4.00027,4.00027 4.0002041,4.0002041 0 0 1 -4.00027,4.00027 4.0002041,4.0002041 0 0 1 -4.00027,-4.00027 4.0002041,4.0002041 0 0 1 4.00027,-4.00027 z m 12.70052,0 a 4.0002041,4.0002041 0 0 1 4.00027,4.00027 4.0002041,4.0002041 0 0 1 -4.00027,4.00027 4.0002041,4.0002041 0 0 1 -4.00028,-4.00027 4.0002041,4.0002041 0 0 1 4.00028,-4.00027 z m -84.60414,1.00872 h 25.00106 c 1.49585,0 2.70009,1.20422 2.70009,2.7001 0,1.49587 -1.20424,2.70009 -2.70009,2.70009 h -25.00106 c -1.49588,0 -2.7001,-1.20422 -2.7001,-2.70009 0,-1.49588 1.20422,-2.7001 2.7001,-2.7001 z m 34.68625,0 h 25.00158 c 1.49588,0 2.70009,1.20422 2.70009,2.7001 0,1.49587 -1.20421,2.70009 -2.70009,2.70009 h -25.00158 c -1.49587,0 -2.70009,-1.20422 -2.70009,-2.70009 0,-1.49588 1.20422,-2.7001 2.70009,-2.7001 z m -34.34364,20.30936 h 25.00158 c 1.49588,0 2.70009,1.20421 2.70009,2.70009 0,1.49588 -1.20421,2.7001 -2.70009,2.7001 h -25.00158 c -1.49587,0 -2.70009,-1.20422 -2.70009,-2.7001 0,-1.49588 1.20422,-2.70009 2.70009,-2.70009 z m 34.68677,0 h 25.00106 c 1.49588,0 2.70061,1.20422 2.70061,2.70009 0,1.49588 -1.20473,2.7001 -2.70061,2.7001 h -25.00106 c -1.49581,0 -2.70009,-1.20422 -2.70009,-2.7001 0,-1.49587 1.20428,-2.70009 2.70009,-2.70009 z m 37.21685,6.99182 a 4.0002041,4.0002041 0 0 1 4.00028,4.00027 4.0002041,4.0002041 0 0 1 -4.00028,4.00027 4.0002041,4.0002041 0 0 1 -4.00027,-4.00027 4.0002041,4.0002041 0 0 1 4.00027,-4.00027 z m 12.70104,0 a 4.0002041,4.0002041 0 0 1 3.99975,4.00027 4.0002041,4.0002041 0 0 1 -3.99975,4.00027 4.0002041,4.0002041 0 0 1 -4.00028,-4.00027 4.0002041,4.0002041 0 0 1 4.00028,-4.00027 z m -84.60466,1.00872 h 25.00158 c 1.49588,0 2.70009,1.20423 2.70009,2.7001 0,1.49588 -1.20421,2.70061 -2.70009,2.70061 h -25.00158 c -1.49587,0 -2.70009,-1.20473 -2.70009,-2.70061 0,-1.49587 1.20422,-2.7001 2.70009,-2.7001 z m 34.68677,0 h 25.00106 c 1.49588,0 2.70061,1.20422 2.70061,2.7001 0,1.49587 -1.20473,2.70009 -2.70061,2.70009 h -25.00106 c -1.49584,0 -2.70009,-1.20422 -2.70009,-2.70009 0,-1.49588 1.20425,-2.7001 2.70009,-2.7001 z" />
  </g>
</svg>
